<svg id="Capa_1" data-name="Capa 1" xmlns="http://www.w3.org/2000/svg" viewBox="0 0 127.48 144.19">
<defs>
<style>
    .cls-1{fill:#b4003d;stroke:#000;stroke-miterlimit:10;stroke-width:0.5px;}
    	.cls-1{
				stroke-dasharray: 100000;
				stroke-dashoffset:1;
				-webkit-animation: dash 6s linear forwards;
				-o animation: dash 6s linear forwards;
				-moz-animation: dash 6s linear forwards;
				animation: dash 6s linear forwards;
				
			}

			@-webkit-keyframes dash{
				from{
					stroke-dashoffset: 100000;
					
				}
				to{
					stroke-dashoffet:1;
					fill: orange;
					
				}
			}
</style>
</defs>
<title>logo-cook-03</title>


<path class="cls-1" d="M386.1,1002.22c11.58,1.47,21,4.86,29.2,10.59.95.67,1.82,1.24,1.9,1.27s.26-.13.38-.33a23.79,23.79,0,0,1,13.59-7.61,44.75,44.75,0,0,1,9.15.29c3.09.61,5,1.61,6,3.18a5.48,5.48,0,0,1-1.33,6.9c-1.23.86-2.17,1.07-4.74,1.07a9.77,9.77,0,0,1-3.79-.46,31.45,31.45,0,0,1-5.7-2.59,8.57,8.57,0,0,0-2-.86c-1.85-.4-3.53.55-5.71,3.18l-1.25,1.52.37.38a40.65,40.65,0,0,1,5.5,7.76,35.69,35.69,0,0,1,2.6,7.4,37,37,0,0,1,0,10.19c-1.77,8.21-6.57,15.14-14.5,20.86s-17.82,9.38-29.68,10.93a53.54,53.54,0,0,1-8.43.33,67,67,0,0,1-8.23-.26,86.84,86.84,0,0,1-10.72-2c-3.59-1-3.29-1-4.82.12-2.79,2-4.1,4-4.52,6.78-.89,6.19,4.15,10.91,13.31,12.48a96.2,96.2,0,0,0,10.61.79c6.89.31,15.38.8,24.8,1.41,4.25.28,13.81,1.15,15.75,1.43,8.27,1.22,14.42,4.56,17.8,9.64a10.32,10.32,0,0,1,1,1.8l.1.47-5.84,1.39c-9.14,2.18-16.62,3.94-16.78,3.94a2.82,2.82,0,0,1-.71-.66,12.87,12.87,0,0,0-6.33-3.35,17.41,17.41,0,0,0-4.6-.32c-3,0-3.28,0-4.72.39-1.61.4-13.75,3.59-15.52,4.08-.53.14-3.71,1-7,1.84-8.73,2.29-11.25,3-12.6,3.34-.65.17-2.5.67-4.1,1.08-4.68,1.21-3.95,1.11,4.8-.64l12.3-2.43,11.9-2.34c5.38-1.08,6.43-1.28,6.55-1.18a4.19,4.19,0,0,1,.59,1.49c0,.14-.43.33-1.13.51l-6.51,1.65L369.71,1121c-4.36,1.12-9.44,2.4-11.3,2.87-6.89,1.73-6.85,1.76.57.41l10.53-1.93c2.84-.51,9-1.63,13.63-2.5s8.55-1.55,8.65-1.55.76,1.39.62,1.48-4.65,1.09-13.87,3.21l-8.33,1.91-6,1.41c-6.79,1.55-9.72,2.24-9.82,2.31s-.64.19,10.21-1.52l12.21-1.91c5.53-.85,12.16-1.9,14.36-2.26a13.74,13.74,0,0,1,2.32-.28,3.64,3.64,0,0,1,.55,1.53c-.08.06-3.39.77-8.21,1.77l-14,2.92c-1.25.27-3.26.69-4.47.93l-5.06,1.07-4.8,1a12.24,12.24,0,0,0-1.86.44c.06,0,15.93-2.23,24.52-3.53l17.65-2.57a23,23,0,0,0,4.86-1c5-1.66,8.2-4.83,8.24-8.09v-.86l11.48-2c6.33-1.13,11.55-2,11.61-2a19.91,19.91,0,0,1,.51,4.77c0,6.9-3.17,12.39-9.72,16.86-8.69,5.91-21.11,9.29-40.27,10.94a163.7,163.7,0,0,1-18.84.72,132.21,132.21,0,0,1-18.06-.78A72.34,72.34,0,0,1,330.1,1141c-9.41-3.72-12.44-11.43-8.2-20.83,2.82-6.22,8.57-12.76,15.77-17.9a51.35,51.35,0,0,1,10.38-5.88l.58-.25-1.47-1.08a11.46,11.46,0,0,1-4.23-4.93c-1.39-3-1.49-9-.22-12,1-2.21,3.24-4.36,6.55-6.15a3.81,3.81,0,0,0,1-.65,17.9,17.9,0,0,0-2.38-1.23c-7.22-3.43-13.89-8.51-17.65-13.45a41.67,41.67,0,0,1-3.95-7.07,33.93,33.93,0,0,1-1.91-6.57,42.12,42.12,0,0,1,0-7.94c1.71-10.6,9.45-20,21.73-26.23,2.75-1.41,6.88-3.13,7.1-2.94.06,0,2.3,2.84,5,6.23s5.37,6.74,6,7.45,1.19,1.49,1.37,1.73.37.47.43.47.56-.15,1.13-.35c.94-.33,1-.34.44-.06a13.66,13.66,0,0,0-3.95,3.22,6.25,6.25,0,0,0-1.31,4.23,10.84,10.84,0,0,0,1.59,5.41c2.9,5.21,10.2,11,16.8,13.38a16.5,16.5,0,0,0,6.41,1.22,6.61,6.61,0,0,0,3.08-.39,6.72,6.72,0,0,0,4.18-4.58,18.55,18.55,0,0,0,0-6.82c-1.43-6.74-6.25-13.24-11.84-15.92a14.88,14.88,0,0,0-7.64-1.58,17.1,17.1,0,0,0-5.14.91c-.35.1-.35.08-.12-.13s.2-.3.06-.43-7.83-9.76-10.79-13.55a20.55,20.55,0,0,1-1.35-1.86,53.19,53.19,0,0,1,7.74-1.76c2.12-.34,5.4-.73,7.24-.87.44,0,3,0,5.75,0A53.25,53.25,0,0,1,386.1,1002.22ZM379.53,1021c6.25,1.82,12.06,8.82,13.61,16.43a16.8,16.8,0,0,1-.22,6.87c-1.56,4-5.63,4.8-12.1,2.37a18.52,18.52,0,0,1-4.26-2.06s.16-.07.35,0a14.16,14.16,0,0,0,4.09.24c3.08-.35,4.48-1.42,5.48-4.22a9,9,0,0,0,.39-3.35,20.68,20.68,0,0,0-3.91-11.82,13.11,13.11,0,0,0-5.11-4.39l-1.19-.55.89.08A17.13,17.13,0,0,1,379.53,1021Zm27.76,92.28c1.48,1.44,1.9,2.42,1.76,4.19-.18,2-1.59,3.89-4.11,5.35a18,18,0,0,1-5.71,2.06c-2.12.39-2.18.37-2.42-.25-.32-.8-.3-.81.95-1.08,6.11-1.31,10-4.94,9.33-8.6a6.56,6.56,0,0,0-1.33-2.6C405.5,1111.91,406.63,1112.62,407.29,1113.24Z" transform="translate(-319.77 -1001.56)"/></svg>