
<!-- Generator: Adobe Illustrator 22.1.0, SVG Export Plug-In . SVG Version: 6.00 Build 0)  -->
<svg version="1.1" id="Capa_1" xmlns="http://www.w3.org/2000/svg" xmlns:xlink="http://www.w3.org/1999/xlink" x="0px" y="0px"
	 viewBox="0 0 1280 1279" style="enable-background:new 0 0 1280 1279;" xml:space="preserve">
<style type="text/css">
	.st0{fill:none;stroke:#000000;stroke-width:20;stroke-miterlimit:10;}
	.st0{
				stroke-dasharray: 100000;
				stroke-dashoffset:1;
				-webkit-animation: dash 6s linear forwards;
				-o animation: dash 6s linear forwards;
				-moz-animation: dash 6s linear forwards;
				animation: dash 6s linear forwards;
				
			}

			@-webkit-keyframes dash{
				from{
					stroke-dashoffset: 100000;
					
				}
				to{
					stroke-dashoffet:1;
					fill: orange;
					
				}
			}
	#logo{
		
		transition: .6s;
	}

	#logo:hover.st0{
		fill:red;
		transition: .6s;
	}
	#logo.clickit. st0{
		fill:red;
	}




</style>
<g transform="translate(0.000000,1279.000000) scale(0.100000,-0.100000)">
	<path id="logo" class="st0" d="M6531,11427c584-103,1057-342,1472-746c48-47,92-87,96-89c4-1,13,9,19,23c23,50,123,175,199,250
		c170,167,326,259,486,286c107,18,364,6,461-20c156-43,252-114,302-224c67-148,34-386-67-486c-62-61-109-76-239-76
		c-107,1-120,3-191,33c-79,34-182,99-287,182c-34,27-80,55-102,61c-93,28-178-39-288-224l-63-107l19-27c84-121,212-373,277-547
		c49-132,109-372,131-521c24-164,25-564,1-718c-89-578-331-1066-731-1469c-401-406-898-661-1496-770c-112-20-157-23-425-23
		c-242,0-322,3-415,18c-160,26-392,86-540,142c-181,68-166,68-243-9c-141-142-207-279-228-477c-45-436,209-769,671-879
		c99-23,204-34,535-56c347-22,775-56,1250-99c214-20,696-81,794-101c417-86,727-321,897-679c25-52,48-110,51-127l5-33l-294-98
		c-461-153-838-277-846-277c-4,0-20,21-36,46c-64,101-189,194-319,236c-63,20-92,23-232,23c-149,0-165-2-238-28
		c-81-28-693-253-782-287c-27-10-187-69-355-130c-440-161-567-208-635-235c-33-12-126-47-207-76c-236-85-199-78,242,45
		c69,19,348,96,620,171s542,149,600,165c271,76,324,90,330,83c9-10,30-86,30-105c0-10-22-23-57-36c-32-11-179-63-328-116
		c-148-52-450-158-670-236c-220-79-476-169-570-202c-347-122-345-124,29-29c149,39,388,100,531,136s452,115,687,176
		c234,60,431,109,436,109c9,0,38-98,31-104c-4-2-234-77-699-226c-140-45-329-106-420-135c-91-30-228-74-305-99
		c-342-109-490-158-495-163c-6-7-32-13,515,107c253,56,530,116,615,135c279,60,613,134,724,159c60,14,113,23,117,20
		c8-5,33-103,28-108c-4-4-171-54-414-125c-430-125-602-175-705-205c-63-19-164-49-225-66c-60-18-175-52-255-75c-80-24-189-56-242-71
		c-54-15-96-29-94-31c3-3,803,157,1236,248c178,37,681,139,890,181c119,23,176,40,245,73c251,117,413,340,415,570v60l579,145
		c319,79,582,142,585,140c10-11,26-216,26-336c0-486-160-873-490-1188c-438-416-1064-654-2030-770c-381-46-475-51-950-51
		s-560,5-910,55c-340,48-674,148-882,262c-474,262-627,805-413,1467c142,438,432,899,795,1261c177,178,308,281,523,414l29,18l-74,76
		c-113,117-166,203-213,347c-70,214-75,637-11,846c48,156,163,307,330,433c28,21,51,42,51,46s-54,44-120,87
		c-364,241-700,599-890,947c-55,101-154,348-199,498c-39,130-81,333-96,463c-13,116-13,445,0,559c86,747,476,1406,1095,1848
		c139,99,347,220,358,207c3-2,116-200,252-439s271-475,300-525c29-49,60-105,69-122c9-18,19-33,22-33c2,0,28,11,57,25
		c47,23,49,24,22,4c-73-54-164-158-199-227c-51-102-66-168-66-298c0-124,24-237,80-381c146-367,514-777,847-942
		c139-68,205-86,323-86c94,0,110,3,155,27c105,55,179,169,211,323c21,106,21,336,0,480c-72,475-315,933-597,1122
		c-127,86-237,118-385,111c-93-4-137-15-259-64c-18-7-18-6-6,9c9,12,10,21,3,30c-9,11-395,688-544,955c-37,67-68,126-68,131
		c0,13,261,96,390,124c107,24,272,51,365,61c22,2,153,3,290,1C6350,11453,6405,11449,6531,11427z M6200,10107
		c315-128,608-621,686-1157c20-142,15-392-11-484c-79-282-284-338-610-167c-95,50-214,130-215,145c0,4,8,5,18,1c46-18,145-26,206-17
		c155,25,226,100,276,297c16,62,20,111,20,236c0,286-69,579-197,833c-69,137-156,241-258,309l-60,39l45-6
		C6124,10132,6169,10119,6200,10107z M7599,3607c75-101,96-170,89-295c-9-144-80-274-207-377c-83-67-188-120-288-145
		c-107-27-110-26-122,18c-16,56-15,57,48,76c308,92,506,348,470,606c-8,54-20,87-67,183C7509,3701,7566,3651,7599,3607z"/>
</g>
</svg>
